<?xml version="1.0" encoding="UTF-8" standalone="no"?>
<!-- Created with Inkscape (http://www.inkscape.org/) -->

<svg
   xmlns:dc="http://purl.org/dc/elements/1.1/"
   xmlns:cc="http://creativecommons.org/ns#"
   xmlns:rdf="http://www.w3.org/1999/02/22-rdf-syntax-ns#"
   xmlns:svg="http://www.w3.org/2000/svg"
   xmlns="http://www.w3.org/2000/svg"
   xmlns:xlink="http://www.w3.org/1999/xlink"
   xmlns:sodipodi="http://sodipodi.sourceforge.net/DTD/sodipodi-0.dtd"
   xmlns:inkscape="http://www.inkscape.org/namespaces/inkscape"
   id="svg1923"
   sodipodi:version="0.32"
   inkscape:version="0.48.4 r9939"
   width="763"
   height="379"
   version="1.0"
   sodipodi:docname="liftarn_The_Charm_of_Oxford.svg">
  <defs
     id="defs1926">
    <linearGradient
       inkscape:collect="always"
       id="linearGradient15634">
      <stop
         style="stop-color:#729fcf;stop-opacity:1;"
         offset="0"
         id="stop15636" />
      <stop
         style="stop-color:#729fcf;stop-opacity:0;"
         offset="1"
         id="stop15638" />
    </linearGradient>
    <linearGradient
       id="linearGradient14190">
      <stop
         style="stop-color:#729fcf;stop-opacity:1;"
         offset="0"
         id="stop14192" />
      <stop
         style="stop-color:#729fcf;stop-opacity:0;"
         offset="1"
         id="stop14194" />
    </linearGradient>
    <linearGradient
       inkscape:collect="always"
       xlink:href="#linearGradient15634"
       id="linearGradient15642"
       x1="14.921261"
       y1="-50.829407"
       x2="414.92126"
       y2="-50.829407"
       gradientUnits="userSpaceOnUse"
       gradientTransform="translate(-264.75592,-164.13384)" />
  </defs>
  <sodipodi:namedview
     inkscape:window-height="721"
     inkscape:window-width="1024"
     inkscape:pageshadow="2"
     inkscape:pageopacity="0.0"
     guidetolerance="10.0"
     gridtolerance="10.0"
     objecttolerance="10.0"
     borderopacity="1.0"
     bordercolor="#666666"
     pagecolor="#ffffff"
     id="base"
     inkscape:zoom="1.005277"
     inkscape:cx="204.93175"
     inkscape:cy="411.73229"
     inkscape:window-x="0"
     inkscape:window-y="25"
     inkscape:current-layer="svg1923"
     showgrid="false"
     inkscape:window-maximized="0" />
  <path
     style="fill:#a3adbb;fill-opacity:1"
     d="m 14.921261,100.14181 0,-50.065531 11.830008,0 c 7.178445,0 12.230105,-0.21412 12.847545,-0.54457 0.817423,-0.43747 1.269706,-0.2924 2.299775,0.73767 l 1.282241,1.28224 1.466546,-1.3235 c 0.8066,-0.72793 1.135207,-1.14139 0.730237,-0.9188 -0.478178,0.26283 -0.610132,0.20056 -0.376396,-0.17764 0.197952,-0.32029 0.677821,-0.46036 1.066376,-0.31125 0.388555,0.1491 1.228054,-0.392 1.865555,-1.20245 0.6375,-0.81046 1.410124,-1.47355 1.716942,-1.47355 0.818472,0 1.24949,-3.36967 1.395386,-10.90905 0.03204,-1.65562 0.242375,-2.40147 0.612692,-2.1726 0.310148,0.19168 1.87099,0.1852 3.468537,-0.0144 2.219473,-0.2773 2.96544,-0.59544 3.162422,-1.3487 0.141785,-0.54219 0.655965,-1.11217 1.142623,-1.26663 0.794034,-0.25202 1.053532,-1.25215 1.242704,-4.78952 0.01705,-0.31875 0.522473,-0.55466 1.123172,-0.52425 0.922406,0.0467 1.1171,0.44438 1.252491,2.55832 0.103666,1.61861 0.359248,2.38009 0.72332,2.15508 0.326405,-0.20173 0.461645,-0.0439 0.321808,0.37565 -0.343672,1.03101 0.976633,2.17042 2.101361,1.81344 1.171696,-0.37188 2.980922,-4.19364 2.993295,-6.32295 0.0071,-1.22437 0.268388,-1.60984 1.179554,-1.74026 1.088315,-0.15578 1.170417,0.0328 1.170417,2.6881 0,1.89878 0.263491,3.07431 0.786369,3.50826 0.432504,0.35894 0.78637,0.9776 0.78637,1.3748 0,0.3972 0.530799,0.72579 1.179554,0.73021 2.302255,0.0157 2.464357,0.48807 2.34302,6.82817 -0.107879,5.63717 -0.03518,6.12104 1.178391,7.8427 1.74325,2.47311 2.624246,3.33446 3.012948,2.94577 0.178491,-0.1785 0.17772,-0.32454 -0.0017,-0.32454 -0.179433,0 -8.33e-4,-0.92232 0.396892,-2.04959 0.397724,-1.12727 0.583853,-2.18887 0.41362,-2.35911 -0.287471,-0.28746 0.668288,-0.51382 1.569027,-0.3716 0.216252,0.0342 0.393185,-0.28953 0.393185,-0.71928 0,-0.42976 0.494941,-1.91489 1.099874,-3.30029 1.047596,-2.39921 1.197012,-2.5178 3.143817,-2.49517 1.436833,0.0167 2.056728,0.25732 2.086993,0.81011 0.02946,0.53812 0.126527,0.57949 0.307471,0.13107 0.145431,-0.36042 0.494595,-0.65531 0.775921,-0.65531 0.281326,0 0.386757,0.20183 0.234301,0.44851 -0.152461,0.24669 0.30269,0.33766 1.011445,0.20218 0.708749,-0.13549 1.174789,-0.43056 1.035638,-0.6557 -0.139151,-0.22516 0.111759,-0.54935 0.557583,-0.72042 0.458988,-0.17613 0.673269,-0.0889 0.494008,0.20118 -0.179261,0.29005 0.03502,0.37732 0.494008,0.20119 0.445824,-0.17108 0.6693,-0.53966 0.496613,-0.81907 -0.189997,-0.30742 0.06995,-0.29824 0.658323,0.0233 0.534757,0.2922 1.601038,0.66296 2.369504,0.8239 0.893662,0.18716 1.648303,0.85985 2.093903,1.86653 0.47299,1.06857 1.07111,1.57391 1.86287,1.57391 0.77301,0 1.0731,-0.24256 0.89011,-0.71945 -0.17408,-0.45364 0.17094,-0.80007 0.93388,-0.93768 2.03198,-0.3665 2.83442,0.0504 3.73598,1.94098 0.47555,0.99723 1.11958,1.81313 1.43119,1.81313 0.31162,0 1.1621,0.70773 1.88995,1.57274 0.72786,0.86501 1.71525,1.57635 2.1942,1.58077 0.75381,0.007 0.76516,0.0763 0.0845,0.51622 -0.67203,0.4343 -0.65297,0.50935 0.13106,0.51622 0.54235,0.005 0.91743,-0.38409 0.91743,-0.95103 0,-0.65742 0.371,-0.94597 1.17956,-0.91743 0.64875,0.0229 1.13442,-0.21174 1.07926,-0.5214 -0.13692,-0.76857 4.77741,-0.94677 6.13106,-0.22232 0.59188,0.31677 1.44897,1.50772 1.90465,2.64657 0.57193,1.42941 1.14804,2.07062 1.86039,2.07062 0.56754,0 1.76531,0.7334 2.66169,1.62979 1.35007,1.35007 1.65891,2.11485 1.7995,4.45609 0.0933,1.55447 -0.0306,2.82631 -0.27535,2.82631 -0.74724,0 -1.60975,2.44513 -1.29162,3.66164 0.2573,0.98394 0.54876,1.09921 2.0617,0.81538 1.38233,-0.25933 1.76204,-0.15598 1.76204,0.47956 0,0.45712 0.45101,0.81013 1.03503,0.81013 1.12847,0 2.7677,2.60215 2.57731,4.09129 -0.0625,0.48898 0.03,1.71474 0.20566,2.72391 0.88357,5.07697 0.86431,5.80771 -0.17649,6.69887 -0.56115,0.48048 -1.02028,1.1976 -1.02028,1.59359 0,0.396 -0.48777,1.40501 -1.08394,2.24224 -1.14084,1.60217 -0.98936,3.61995 0.27175,3.61995 0.37945,0 0.81949,0.49556 0.97788,1.10125 0.15839,0.60567 0.49769,0.97163 0.754,0.81322 0.54103,-0.33438 1.82176,1.04807 2.92936,3.16199 0.42553,0.81214 0.96243,1.35867 1.19312,1.2145 0.23069,-0.14417 0.57503,0.49868 0.76521,1.42855 0.19018,0.92986 0.73065,2.27805 1.20105,2.99597 0.47039,0.71791 0.85526,1.78543 0.85526,2.37224 0,0.77876 0.3422,1.06694 1.26693,1.06694 0.69681,0 1.35972,0.278351 1.47312,0.618561 0.11511,0.34535 0.59752,0.46839 1.09218,0.27857 0.69157,-0.26538 0.89962,-1.062581 0.94807,-3.632981 0.0341,-1.81114 0.002,-3.5289 -0.0717,-3.81723 -0.74582,-2.92356 -0.72825,-2.96733 1.12069,-2.79062 l 1.77225,0.16938 -0.16163,4.88588 c -0.12413,3.75232 0.0776,5.637551 0.86935,8.125811 0.56704,1.78198 1.42158,4.89133 1.89898,6.90968 0.4774,2.01835 1.06673,4.43643 1.30963,5.37352 0.34316,1.32394 0.27724,1.7038 -0.29568,1.7038 -0.52446,0 -0.74888,0.71886 -0.77741,2.49017 -0.0221,1.3696 -0.13907,2.962 -0.26001,3.53867 -0.31264,1.49071 0.23451,3.51003 0.84829,3.13069 0.28459,-0.17588 0.39177,-0.5231 0.2382,-0.77158 -0.35766,-0.5787 0.50673,-1.11013 2.08802,-1.28371 1.34743,-0.14791 3.04311,-1.53624 2.51786,-2.06148 -0.17849,-0.1785 -0.0236,-0.32454 0.34426,-0.32454 0.60911,0 1.28015,0.51404 4.27731,3.27654 0.54744,0.50459 1.29024,0.91382 1.65066,0.90941 0.43687,-0.005 0.39319,-0.17743 -0.13106,-0.51622 -0.5599,-0.36184 -0.59098,-0.5105 -0.10794,-0.51622 0.52923,-0.006 0.65908,-1.78317 0.5904,-8.07888 -0.0484,-4.43896 0.0565,-8.30467 0.2331,-8.59046 0.17663,-0.28579 -0.14802,-0.64231 -0.72146,-0.79226 -0.6333,-0.16562 -1.04259,-0.71567 -1.04259,-1.40116 0,-0.69165 0.22469,-0.98965 0.58041,-0.7698 0.39058,0.24139 0.46475,-0.006 0.2268,-0.75543 -0.20981,-0.66102 -0.12604,-1.11414 0.20595,-1.11414 0.30777,0 0.55958,-0.73966 0.55958,-1.64369 0,-1.59954 -1.96065,-4.123021 -3.20343,-4.123021 -0.2905,0 -0.37256,-0.25179 -0.18236,-0.55954 0.1903,-0.30791 -0.14786,-0.68863 -0.752,-0.84661 -0.92492,-0.24187 -1.05823,-0.58718 -0.8465,-2.19276 0.13821,-1.04812 0.37268,-2.84932 0.52102,-4.00267 0.96206,-7.4796 0.71125,-6.87639 2.75968,-6.63725 1.41358,0.16503 1.74826,0.0563 1.42702,-0.46345 -0.30471,-0.49303 -0.16931,-0.58298 0.49424,-0.32835 0.77787,0.2985 0.8647,0.12669 0.58337,-1.15424 -0.1818,-0.82772 -0.16558,-2.16223 0.0361,-2.96558 0.34444,-1.37237 0.40942,-1.40206 1.07537,-0.49133 0.38982,0.53312 0.70877,1.85393 0.70877,2.93515 0,1.08122 0.22861,2.10714 0.50803,2.27983 0.98502,0.60877 14.17041,0.66282 14.1789,0.0581 0.005,-0.34478 0.17403,-0.31088 0.42554,0.0853 0.22963,0.36168 1.05171,0.60512 1.82683,0.54096 1.08378,-0.0897 1.40932,-0.39296 1.40932,-1.31291 0,-0.65795 0.24984,-1.19627 0.55519,-1.19627 0.30535,0 0.40939,-0.23591 0.23118,-0.52425 -0.1782,-0.28833 -0.0742,-0.52424 0.23119,-0.52424 0.30535,0 0.55518,0.23591 0.55518,0.52424 0,0.28834 0.2006,0.52425 0.44578,0.52425 0.24517,0 0.48711,-1.47444 0.53763,-3.27654 0.0505,-1.8021 0.22005,-3.69055 0.37673,-4.19656 0.17105,-0.55233 -0.0426,-1.04569 -0.53461,-1.23448 -0.45073,-0.17296 -0.6866,-0.52952 -0.52417,-0.79234 0.16244,-0.26283 0.48978,-0.35769 0.72744,-0.21081 0.23765,0.14688 0.57971,-0.3211 0.76013,-1.03995 0.18042,-0.71884 0.52158,-1.30699 0.75815,-1.30699 0.75446,0 1.57726,2.41015 1.09031,3.19376 -0.25227,0.40595 -0.33587,1.68173 -0.18578,2.83507 0.63825,4.90456 0.83029,5.68633 1.2357,5.03036 0.22564,-0.3651 0.50764,-0.70264 0.62665,-0.7501 0.23701,-0.0945 1.52449,0.94072 3.059,2.45964 0.54075,0.53526 1.22756,0.82215 1.52625,0.63755 0.29869,-0.1846 0.99641,-0.0525 1.55049,0.2935 0.83159,0.51934 1.24394,0.44309 2.36265,-0.43688 0.74538,-0.58633 1.23511,-1.18617 1.08829,-1.333 -0.14683,-0.14682 0.10933,-0.41135 0.56925,-0.58783 0.47903,-0.18382 0.70098,-0.10208 0.51963,0.19135 -0.17926,0.29005 0.035,0.37732 0.49401,0.20119 0.44582,-0.17108 0.68173,-0.51954 0.52424,-0.77436 -0.15749,-0.25482 0.0617,-0.32976 0.48705,-0.16653 0.46693,0.17917 1.0194,-0.16288 1.3942,-0.8632 0.35816,-0.66922 0.7633,-0.93036 0.95764,-0.61723 0.4068,0.6555 5.5891,-1.60528 9.40293,-4.10204 2.48587,-1.62739 2.62152,-1.83309 2.47799,-3.75762 -0.0867,-1.16234 -0.53223,-2.31412 -1.03831,-2.68417 -0.73772,-0.53943 -0.24208,-0.66854 2.95395,-0.76945 l 3.8404,-0.12125 0,3.06399 c 0,3.29708 0.62997,4.39411 2.90781,5.06372 2.12274,0.62402 4.16952,1.56731 4.16952,1.9216 0,0.67824 3.10943,1.59191 4.28638,1.2595 0.82929,-0.23422 0.99354,-0.18815 0.51448,0.14432 -0.52311,0.36304 -0.0522,0.80292 1.83486,1.7139 1.39622,0.67403 2.96086,1.61661 3.47696,2.0946 1.19053,1.10263 3.25288,1.04307 3.2635,-0.0942 0.004,-0.46551 0.26815,-1.17325 0.58624,-1.57274 0.31808,-0.39951 0.87204,-2.31877 1.23101,-4.26503 0.71884,-3.89738 1.2683,-4.54359 1.41659,-1.66603 0.0529,1.02735 0.36219,2.18835 0.68722,2.57998 0.32503,0.39164 0.53939,1.02446 0.47636,1.40626 -0.20308,1.23023 0.65951,2.52907 1.6796,2.52907 0.54582,0 0.99241,-0.24421 0.99241,-0.54269 0,-0.36794 0.33762,-0.362 1.04849,0.0184 0.78235,0.4187 1.04849,1.09768 1.04849,2.67489 0,1.74947 0.32667,2.42182 1.89554,3.90146 2.05254,1.93579 2.08961,3.19309 0.10244,3.47473 -1.10165,0.15614 -1.20028,0.40961 -1.08677,2.79296 0.16887,3.54572 0.1603,2.79717 0.1766,15.425361 l 0.0145,11.23138 1.56949,1.60531 c 1.07437,1.09889 1.68998,1.41036 1.95143,0.98732 0.24166,-0.39102 1.64521,-0.58086 3.82156,-0.5169 l 3.43964,0.10108 -0.21927,-7.7764 c -0.19137,-6.78724 -0.34706,-7.90419 -1.22399,-8.78112 -0.5526,-0.5526 -1.24064,-1.00473 -1.52898,-1.00473 -0.81355,0 -0.6175,-1.04562 0.25911,-1.38201 0.43085,-0.16533 0.65181,-0.51345 0.49102,-0.77362 -0.16079,-0.26015 0.0751,-0.61402 0.52425,-0.78637 0.44912,-0.17234 0.68494,-0.52635 0.52405,-0.78669 -0.36434,-0.58951 1.0939,-2.116431 1.56824,-1.64209 0.19031,0.19031 0.27737,-4.008341 0.19347,-9.330341 -0.13936,-8.84078 -0.23176,-9.67006 -1.06997,-9.60353 -0.57564,0.0457 -0.91743,-0.2961 -0.91743,-0.91743 0,-0.54463 -0.32635,-0.99024 -0.72523,-0.99024 -0.39887,0 -0.84869,-0.47215 -0.9996,-1.04922 -0.16664,-0.63722 -0.0639,-0.91911 0.26174,-0.71788 0.35381,0.21867 0.46743,-1.02895 0.3341,-3.669 -0.1111,-2.20019 0.006,-4.00034 0.26087,-4.00034 0.25458,0 0.30427,-0.76671 0.11042,-1.7038 -0.48812,-2.35964 -0.46521,-3.50888 0.11235,-5.63565 0.51443,-1.89428 0.72111,-1.7105 1.47393,1.31062 0.43724,1.75468 0.43759,1.73729 -0.0595,3.01441 -0.27104,0.69644 -0.091,0.91744 0.74753,0.91744 0.60752,0 1.10819,-0.29489 1.11261,-0.65531 0.005,-0.43687 0.17742,-0.39319 0.51622,0.13106 0.27951,0.4325 0.53146,0.55046 0.5599,0.26212 0.0284,-0.28833 0.11375,-1.09797 0.18957,-1.7992 0.0758,-0.70122 -0.16662,-1.86184 -0.53876,-2.57914 -0.45383,-0.87474 -0.51361,-1.60878 -0.18154,-2.22924 0.27229,-0.50878 0.49507,-1.41239 0.49507,-2.00802 0,-0.59563 0.17694,-1.08207 0.39319,-1.08099 0.76105,0.004 2.14753,4.46582 1.882,6.05669 -0.40999,2.45634 0.7227,3.09883 3.56573,2.0226 1.2567,-0.47572 2.77819,-0.89622 3.3811,-0.93444 0.77261,-0.049 1.0251,-0.34139 0.85534,-0.99056 -0.13247,-0.50659 0.0571,-1.64029 0.42116,-2.51933 0.49703,-1.19993 0.5125,-1.74779 0.0621,-2.1982 -0.85939,-0.85939 -0.73981,-2.32137 0.21999,-2.68968 0.45338,-0.17397 0.74634,-0.77432 0.65531,-1.34288 -0.0905,-0.56553 0.0532,-1.04075 0.31939,-1.05604 0.26621,-0.0153 0.50973,0.55957 0.54116,1.27748 0.0314,0.71791 0.33233,1.58048 0.66867,1.91682 0.46589,0.46589 0.41803,0.98575 -0.20094,2.18271 -0.74056,1.43208 -0.73818,1.54267 0.0269,1.24909 0.46164,-0.17715 0.83935,-0.0877 0.83935,0.19868 0,0.57965 2.24608,1.58715 4.06291,1.82246 0.64876,0.084 1.17956,-0.0727 1.17956,-0.34829 0,-0.27559 0.29488,-0.46277 0.6553,-0.41597 1.42388,0.1849 2.53743,-0.0628 2.26488,-0.50378 -0.15794,-0.25555 0.20574,-0.59354 0.80818,-0.75108 0.68123,-0.17815 0.94912,-0.52304 0.70857,-0.91227 -0.28565,-0.46218 -0.14295,-0.48937 0.54572,-0.10397 1.52368,0.8527 2.88104,-0.72947 2.88104,-3.35819 0,-1.21641 0.24984,-2.36607 0.5552,-2.55479 0.30537,-0.18873 0.4886,-0.85141 0.4072,-1.47262 -0.26034,-1.98664 0.68325,-1.72522 1.41071,0.39084 0.75331,2.19121 1.5089,2.91498 3.05651,2.92774 0.64706,0.005 0.87335,-0.25298 0.67483,-0.77035 -0.18365,-0.47855 0.14812,-0.99451 0.86134,-1.33953 1.04447,-0.50526 1.06945,-0.48784 0.25075,0.1749 -1.5088,1.22137 -0.37475,1.47122 1.29172,0.28459 0.85797,-0.61092 1.31155,-1.25012 1.01649,-1.43248 -0.29304,-0.18111 0.0562,-0.60727 0.77616,-0.94702 1.12165,-0.52934 1.21929,-0.50968 0.6823,0.13735 -0.77943,0.93916 0.0313,0.98803 1.27717,0.077 0.80749,-0.59045 0.94724,-1.75642 1.08118,-9.02075 0.10335,-5.60553 0.34797,-8.40736 0.74558,-8.5399 0.67348,-0.22449 0.81211,-3.05729 0.16907,-3.45471 -0.23248,-0.14368 -0.32487,-1.09919 -0.2053,-2.12335 l 0.21738,-1.86211 1.34587,2.61196 c 0.74022,1.43659 1.39845,2.5551 1.46275,2.4856 0.38668,-0.41804 0.54925,-15.48498 0.17474,-16.19455 -0.31583,-0.59838 -0.21712,-0.9569 0.3202,-1.16309 0.57279,-0.2198 0.7905,-1.2317 0.82903,-3.8532 0.0287,-1.9553101 0.21261,-4.1292001 0.40859,-4.8308601 0.32919,-1.17859 0.41146,-1.10871 1.08015,0.91743 0.71483,2.16595 1.78971,3.0544901 1.54329,1.27575 -0.0699,-0.50459 0.2319,-1.74312 0.67068,-2.7523 0.43876,-1.00917 1.08739,-2.71403 1.44138,-3.78857 0.35399,-1.07455003 0.92202,-1.90023003 1.2623,-1.83486003 0.34027,0.0654 0.58902,-0.27534 0.55278,-0.75713 -0.0442,-0.58723997 0.20181,-0.77323997 0.74632,-0.56428997 0.60361,0.23163 0.72307,0.0793 0.46509,-0.59293 -0.19719,-0.51389 -0.13385,-0.7728 0.14664,-0.59944 0.66541,0.41124 2.66878,-1.35228 2.26972,-1.99797 -0.17395,-0.28145 -0.0652,-0.35656 0.24167,-0.16691 1.30625,0.80731 2.32464,-0.29592 2.13255,-2.3102 -0.10377,-1.08812 -0.0321,-1.88164 0.15922,-1.76338 0.63359,0.39157 0.98202,-1.3916499 0.98202,-5.0258699 0,-2.9767 -0.1564,-3.62928 -0.91743,-3.82816 -0.82108,-0.21457 -0.82474,-0.24613 -0.0348,-0.30056 0.55344,-0.0381 0.94447,-0.59847 1.04849,-1.50249 l 0.16588,-1.44168 0.86429,1.67783 c 0.50064,0.97187 0.64638,1.75046 0.34638,1.85046 -0.74927,0.24976 -0.68736,7.05648 0.0725,7.9720799 0.3487,0.42015 0.5565,1.42515 0.46177,2.23334 -0.13958,1.19098 0.0527,1.50137 1.01483,1.63794 1.88206,0.26717 5.89669,4.2894 7.27159,7.28535 0.69048,1.5046 1.40196,3.80473 1.58106,5.1114 0.33849,2.46955 1.18545,3.2527001 1.29369,1.19622 0.0341,-0.64876 0.0341,-1.35649 0,-1.57274 -0.0341,-0.21626 0.16028,-0.39319 0.43206,-0.39319 0.27178,0 0.40328,-0.47182 0.29223,-1.04849 -0.29845,-1.54969 0.0355,-1.28531 1.15881,0.91743 0.79169,1.55244 0.89088,2.27178 0.47156,3.42016 -0.41782,1.1442901 -0.33151,1.7919201 0.405,3.0387301 0.6615,1.11984 0.7773,1.77573 0.39486,2.23653 -0.41802,0.50369 -0.82149,10.15328 -0.62282,14.89567 0.0485,1.15724 0.9513,0.69905 1.29122,-0.65531 0.55865,-2.22581 1.53195,-1.56381 1.15615,0.78637 -0.18443,1.15334 -0.12483,2.09698 0.13245,2.09698 0.25728,0 0.49966,2.53605 0.53863,5.63565 0.13047,10.37529 0.87335,13.76147 3.01909,13.76147 0.38781,0 0.70511,0.19155 0.70511,0.42566 0,0.23411 0.74153,0.97389 1.64783,1.64395 l 1.64783,1.21829 0.97734,-1.25076 c 0.55914,-0.71558 0.91957,-1.90486 0.84234,-2.77941 -0.0742,-0.84076 0.14133,-1.62094 0.47906,-1.73374 0.3911,-0.13063 0.51139,0.1875 0.33131,0.87613 -0.15551,0.59467 -0.0515,1.37485 0.23109,1.73374 0.2826,0.35888 0.67386,1.32137 0.86945,2.13887 0.40993,1.71339 2.68086,4.01823 3.95912,4.01823 0.75581,0 0.88691,-0.80676 0.98702,-6.07397 0.10855,-5.71158 0.052,-6.09057 -0.94814,-6.3521 -0.58496,-0.15297 -1.06357,-0.53476 -1.06357,-0.84841 0,-0.62445 1.78408,-7.18812 5.80044,-21.34 1.43426,-5.0537 2.70313,-9.94222 2.81971,-10.86339 0.11658,-0.92118 0.33563,-1.87495 0.48677,-2.1195101 0.15114,-0.24455 0.3947,-1.10581 0.54123,-1.9139 0.50271,-2.77225 1.38757,-2.41815 2.5768,1.03115 0.6748,1.9572101 0.85873,2.0945101 3.01617,2.2513501 3.12846,0.22745 6.16952,-0.35327 5.16822,-0.98691 -0.60771,-0.3845701 -0.56884,-0.4762001 0.20478,-0.4827101 0.52518,-0.004 1.30875,-0.36189 1.74125,-0.79439 0.47048,-0.47049 0.54831,-0.78637 0.19373,-0.78637 -0.32594,0 -0.44683,-0.23591 -0.26862,-0.52425 0.59172,-0.95743 1.17571,-0.54346 1.49657,1.06087 0.37059,1.8529401 1.62799,2.5135801 3.07005,1.6130001 0.66852,-0.4175001 1.23183,-0.4621101 1.63435,-0.12941 0.79753,0.65916 14.62876,0.6983 14.22206,0.0402 -0.16579,-0.2682401 -0.0516,-0.4877101 0.25376,-0.4877101 0.30535,0 0.55518,0.22236 0.55518,0.4941401 0,0.27178 0.5308,0.37703 1.17956,0.23388 2.41994,-0.5339501 3.57207,-0.5738401 3.84448,-0.13309 0.15417,0.24946 1.21003,0.45356 2.34636,0.45356 l 2.06604,0 0,69.72477 -3e-5,69.724761 -200,0 -199.999999,0 0,-50.06553 z"
     id="path1970"
     inkscape:connector-curvature="0" />
  <metadata
     id="metadata13678">
    <rdf:RDF>
      <cc:Work>
        <dc:format>image/svg+xml</dc:format>
        <dc:type
           rdf:resource="http://purl.org/dc/dcmitype/StillImage" />
        <cc:license
           rdf:resource="http://creativecommons.org/licenses/publicdomain/" />
        <dc:publisher>
          <cc:Agent
             rdf:about="http://openclipart.org/">
            <dc:title>Open Clip Art Library</dc:title>
          </cc:Agent>
        </dc:publisher>
        <dc:title></dc:title>
        <dc:date>2007-01-20T06:42:12</dc:date>
        <dc:description>Based on http://www.fromoldbooks.org/Wells-TheCharmOfOxford/pages/000-Front-Cover/</dc:description>
        <dc:source>http://openclipart.org/detail/2944/the-charm-of-oxford-by-liftarn</dc:source>
        <dc:creator>
          <cc:Agent>
            <dc:title>liftarn</dc:title>
          </cc:Agent>
        </dc:creator>
        <dc:subject>
          <rdf:Bag>
            <rdf:li>clip art</rdf:li>
            <rdf:li>clipart</rdf:li>
            <rdf:li>image</rdf:li>
            <rdf:li>media</rdf:li>
            <rdf:li>oxford</rdf:li>
            <rdf:li>oxford</rdf:li>
            <rdf:li>public domain</rdf:li>
            <rdf:li>silhouette</rdf:li>
            <rdf:li>silhouette</rdf:li>
            <rdf:li>skyline</rdf:li>
            <rdf:li>skyline</rdf:li>
            <rdf:li>svg</rdf:li>
            <rdf:li>town</rdf:li>
            <rdf:li>town</rdf:li>
          </rdf:Bag>
        </dc:subject>
      </cc:Work>
      <cc:License
         rdf:about="http://creativecommons.org/licenses/publicdomain/">
        <cc:permits
           rdf:resource="http://creativecommons.org/ns#Reproduction" />
        <cc:permits
           rdf:resource="http://creativecommons.org/ns#Distribution" />
        <cc:permits
           rdf:resource="http://creativecommons.org/ns#DerivativeWorks" />
      </cc:License>
    </rdf:RDF>
  </metadata>
  <rect
     style="opacity:0.9;color:#000000;fill:url(#linearGradient15642);fill-opacity:1;fill-rule:evenodd;stroke:none;stroke-width:2;marker:none;visibility:visible;display:inline;overflow:visible;enable-background:accumulate"
     id="rect13680"
     width="400"
     height="400"
     x="-249.83466"
     y="-414.96326"
     transform="matrix(0,1,-1,0,0,0)" />
</svg>
